<svg xmlns="http://www.w3.org/2000/svg" viewBox="0 0 16 16" class="pdsicon"><path fill-rule="evenodd" d="M3.667 1.62a1.06 1.06 0 0 1 .777-.286c.993 0 1.706.62 2.21 1.372.144.214.265.43.363.628h-2.67a1.06 1.06 0 0 1-1.013-1c.014-.272.134-.528.333-.715M2.245 3.333A2.4 2.4 0 0 1 2 2.356v-.044A2.39 2.39 0 0 1 4.455.001c1.63.004 2.692 1.048 3.306 1.961q.13.194.239.383a7 7 0 0 1 .238-.383C8.852 1.05 9.914.005 11.545.001a2.39 2.39 0 0 1 2.454 2.355 2.4 2.4 0 0 1-.245.978h1.579c.368 0 .666.298.666.667v2.666a.667.667 0 0 1-.667.667H8.667v7.333h4a.667.667 0 0 0 .667-.667V8.667a.667.667 0 0 1 1.333 0V14a2 2 0 0 1-2 2H3.333a2 2 0 0 1-2-2V8.667a.667.667 0 1 1 1.334 0V14a.667.667 0 0 0 .666.667h4V7.334H.667A.667.667 0 0 1 0 6.667V4.001c0-.369.298-.667.667-.667zm2.081 1.333H1.333v1.334h6V4.667H4.326m4.34 0v1.334h6V4.667h-6m2.986-1.333a1.06 1.06 0 0 0 1.013-1 1.06 1.06 0 0 0-1.11-1c-.993 0-1.706.62-2.21 1.372-.144.214-.265.43-.363.628z"/></svg>